<svg width="24" height="25" viewBox="0 0 24 25" fill="none" xmlns="http://www.w3.org/2000/svg">
<path fill-rule="evenodd" clip-rule="evenodd" d="M11.6236 18.4344C14.6942 18.4344 17.1834 15.9452 17.1834 12.8746C17.1834 9.80403 14.6942 7.31484 11.6236 7.31484C8.55306 7.31484 6.06386 9.80403 6.06386 12.8746C6.06386 15.9452 8.55306 18.4344 11.6236 18.4344ZM11.6236 21.467C16.3691 21.467 20.216 17.6201 20.216 12.8746C20.216 8.12917 16.3691 4.28223 11.6236 4.28223C6.87819 4.28223 3.03125 8.12917 3.03125 12.8746C3.03125 17.6201 6.87819 21.467 11.6236 21.467Z" fill="#FD5B0E"/>
<path d="M10.1094 2.7663C10.1094 1.92887 10.7882 1.25 11.6257 1.25C12.4631 1.25 13.142 1.92887 13.142 2.7663V4.78804C13.142 5.62548 12.4631 6.30435 11.6257 6.30435C10.7882 6.30435 10.1094 5.62548 10.1094 4.78804V2.7663Z" fill="#FD5B0E"/>
<path d="M21.7337 11.3584C22.5711 11.3584 23.25 12.0373 23.25 12.8747C23.25 13.7121 22.5711 14.391 21.7337 14.391L19.712 14.391C18.8745 14.391 18.1957 13.7121 18.1957 12.8747C18.1957 12.0373 18.8745 11.3584 19.712 11.3584L21.7337 11.3584Z" fill="#FD5B0E"/>
<path d="M10.1094 20.9616C10.1094 20.1242 10.7882 19.4453 11.6257 19.4453C12.4631 19.4453 13.142 20.1242 13.142 20.9616V22.9834C13.142 23.8208 12.4631 24.4997 11.6257 24.4997C10.7882 24.4997 10.1094 23.8208 10.1094 22.9834V20.9616Z" fill="#FD5B0E"/>
<path d="M3.53838 11.3584C4.37581 11.3584 5.05469 12.0373 5.05469 12.8747C5.05469 13.7121 4.37581 14.391 3.53838 14.391L1.51664 14.391C0.679212 14.391 0.000339405 13.7121 0.000339442 12.8747C0.000339478 12.0373 0.679212 11.3584 1.51664 11.3584L3.53838 11.3584Z" fill="#FD5B0E"/>
</svg>
