<svg width="235" height="51" viewBox="0 0 235 51" fill="none" xmlns="http://www.w3.org/2000/svg">
<path d="M50.0854 20.3675C49.7357 18.1112 48.8611 15.8547 47.8116 13.7719C46.762 14.4662 45.5378 14.8133 44.1385 14.8133C40.2903 14.8133 37.1419 11.6891 37.1419 7.87055C37.1419 6.30842 37.6666 4.91987 38.5411 3.70488C35.7427 1.96918 32.769 0.754196 29.4457 0.0599181C28.0464 -0.287221 26.8219 0.927766 26.8219 2.31632V8.21769C26.8219 9.2591 27.5215 10.3005 28.5711 10.4741C33.8185 11.8626 38.0165 15.8547 39.4157 21.0618C39.7656 22.1032 40.6402 22.7975 41.6895 22.7975H47.6366C49.211 23.1446 50.4353 21.7561 50.0854 20.3675Z" fill="white"/>
<path d="M10.7301 21.409C12.1294 16.2019 16.3274 12.0362 21.5748 10.8212C22.6243 10.4741 23.324 9.60626 23.324 8.56484V2.48991C23.324 1.10135 21.9245 -0.113637 20.7002 0.233502C10.2054 2.14277 1.98444 10.127 0.0603826 20.3675C-0.289446 21.7561 0.934947 23.1447 2.33427 23.1447H8.45624C9.50572 23.1447 10.5552 22.2769 10.7301 21.409Z" fill="white"/>
<path d="M21.5748 39.4602C16.3274 38.0716 12.1294 34.0796 10.7301 28.8725C10.3803 27.8311 9.50572 27.1368 8.45624 27.1368H2.33427C0.934947 27.1368 -0.289446 28.5254 0.0603826 29.914C1.98444 40.1544 10.2054 48.1387 20.5253 50.048C21.9245 50.3952 23.149 49.1801 23.149 47.7915V41.8901C23.324 40.5016 22.6243 39.6338 21.5748 39.4602Z" fill="white"/>
<path d="M39.5909 28.6989C38.1915 33.906 33.9935 37.8982 28.7463 39.2867C27.6968 39.6339 26.9971 40.5016 26.9971 41.543V47.4444C26.9971 48.833 28.3964 50.0481 29.6209 49.7009C39.9406 47.7915 48.1617 39.8073 50.0856 29.5668C50.4355 28.1783 49.211 26.7897 47.8118 26.7897H41.6898C40.6402 26.9632 39.7659 27.6575 39.5909 28.6989Z" fill="white"/>
<path d="M44.3137 1.10138C42.0396 1.10138 40.1157 2.1428 38.8912 3.70492C42.7392 6.1349 45.8879 9.60629 47.9867 13.772C49.9108 12.557 51.3101 10.3006 51.3101 7.87059C51.3101 4.22563 48.1617 1.10138 44.3137 1.10138Z" fill="white"/>
<path d="M64.1344 44.4508C63.4716 44.4508 62.9344 43.9136 62.9344 43.2508V19.2416C62.9344 18.5789 63.4716 18.0416 64.1344 18.0416H70.0484C70.7111 18.0416 71.2484 18.5789 71.2484 19.2416V43.2508C71.2484 43.9136 70.7111 44.4508 70.0484 44.4508H64.1344ZM67.1186 14.4008C65.8144 14.4008 64.7276 13.9661 63.8582 13.0967C63.0249 12.191 62.6083 11.1042 62.6083 9.83626C62.6083 8.5321 63.0249 7.4453 63.8582 6.57586C64.7276 5.70642 65.8144 5.2717 67.1186 5.2717C68.4227 5.2717 69.4914 5.70642 70.3246 6.57586C71.1578 7.4453 71.5744 8.5321 71.5744 9.83626C71.5744 11.1042 71.1578 12.191 70.3246 13.0967C69.4914 13.9661 68.4227 14.4008 67.1186 14.4008Z" fill="white"/>
<path d="M77.9771 44.4508C77.3143 44.4508 76.7771 43.9136 76.7771 43.2508V7.2868C76.7771 6.62406 77.3143 6.0868 77.9771 6.0868H82.2076C82.6161 6.0868 82.9966 6.29467 83.2173 6.63848L97.1322 28.3115C97.494 28.8752 97.0893 29.616 96.4195 29.616C95.7503 29.616 95.3454 28.8764 95.7061 28.3127L109.57 6.64013C109.791 6.29538 110.172 6.0868 110.581 6.0868H114.865C115.528 6.0868 116.065 6.62406 116.065 7.2868V43.2508C116.065 43.9136 115.528 44.4508 114.865 44.4508H108.734C108.071 44.4508 107.534 43.9136 107.534 43.2508V21.2381C107.534 20.8565 107.892 20.5766 108.262 20.6691C108.652 20.7664 108.83 21.2172 108.614 21.555L99.5737 35.6393C99.353 35.9832 98.9724 36.1912 98.5638 36.1912H94.2258C93.8161 36.1912 93.4347 35.9821 93.2143 35.6368L84.2076 21.5263C84 21.2011 84.1702 20.7679 84.5437 20.6711C84.9033 20.5778 85.2541 20.8493 85.2541 21.2208V43.2508C85.2541 43.9136 84.7169 44.4508 84.0541 44.4508H77.9771Z" fill="white"/>
<path d="M134.29 45.0486C131.573 45.0486 129.11 44.4508 126.9 43.2554C124.727 42.0237 123.006 40.3572 121.738 38.2561C120.47 36.1549 119.836 33.8002 119.836 31.1919C119.836 28.5836 120.47 26.2469 121.738 24.182C123.006 22.1171 124.727 20.4869 126.9 19.2914C129.074 18.0597 131.537 17.4439 134.29 17.4439C137.044 17.4439 139.507 18.0416 141.681 19.2371C143.854 20.4326 145.575 22.0809 146.843 24.182C148.111 26.2469 148.745 28.5836 148.745 31.1919C148.745 33.8002 148.111 36.1549 146.843 38.2561C145.575 40.3572 143.854 42.0237 141.681 43.2554C139.507 44.4508 137.044 45.0486 134.29 45.0486ZM134.29 37.4953C135.486 37.4953 136.537 37.2417 137.442 36.7346C138.348 36.1912 139.036 35.4485 139.507 34.5066C140.014 33.5285 140.268 32.4236 140.268 31.1919C140.268 29.9602 140.014 28.8915 139.507 27.9858C139 27.0439 138.294 26.3194 137.388 25.8122C136.518 25.2688 135.486 24.9971 134.29 24.9971C133.131 24.9971 132.099 25.2688 131.193 25.8122C130.287 26.3194 129.581 27.0439 129.074 27.9858C128.567 28.9277 128.313 30.0145 128.313 31.2462C128.313 32.4417 128.567 33.5285 129.074 34.5066C129.581 35.4485 130.287 36.1912 131.193 36.7346C132.099 37.2417 133.131 37.4953 134.29 37.4953Z" fill="white"/>
<path d="M164.567 45.0486C161.85 45.0486 159.387 44.4508 157.177 43.2554C154.967 42.0599 153.228 40.4116 151.96 38.3104C150.692 36.2093 150.058 33.8545 150.058 31.2462C150.058 28.6017 150.692 26.2469 151.96 24.182C153.264 22.0809 155.021 20.4326 157.231 19.2371C159.441 18.0416 161.923 17.4439 164.676 17.4439C166.741 17.4439 168.625 17.8061 170.327 18.5307C171.714 19.0796 172.974 19.8589 174.107 20.8687C174.593 21.3014 174.58 22.0489 174.12 22.5089L170.518 26.1107C170.031 26.5979 169.24 26.5616 168.682 26.1583C168.301 25.8833 167.889 25.6592 167.447 25.4862C166.65 25.1601 165.726 24.9971 164.676 24.9971C163.48 24.9971 162.412 25.2688 161.47 25.8122C160.564 26.3194 159.84 27.0439 159.296 27.9858C158.789 28.8915 158.535 29.9602 158.535 31.1919C158.535 32.4236 158.789 33.5104 159.296 34.4523C159.84 35.3942 160.582 36.1368 161.524 36.6802C162.466 37.2236 163.517 37.4953 164.676 37.4953C165.763 37.4953 166.723 37.3142 167.556 36.9519C168.023 36.7378 168.453 36.4819 168.847 36.1842C169.399 35.7673 170.194 35.7366 170.681 36.2279L174.236 39.82C174.692 40.2808 174.703 41.0249 174.223 41.4606C173.06 42.5167 171.779 43.3504 170.382 43.9618C168.643 44.6863 166.705 45.0486 164.567 45.0486Z" fill="white"/>
<path d="M196.311 44.4508C195.649 44.4508 195.111 43.9136 195.111 43.2508V29.3987C195.111 28.0221 194.677 26.9171 193.807 26.0839C192.974 25.2145 191.905 24.7798 190.601 24.7798C189.695 24.7798 188.898 24.979 188.21 25.3775C187.522 25.7398 186.978 26.2832 186.58 27.0077C186.485 27.171 186.402 27.3403 186.33 27.5158C185.992 28.3377 185.05 28.9406 184.253 28.5486L183.447 28.1524C183.036 27.9507 182.771 27.5326 182.796 27.0758C182.889 25.3182 183.317 23.7558 184.08 22.3888C184.95 20.8311 186.163 19.6356 187.721 18.8024C189.279 17.9329 191.072 17.4982 193.101 17.4982C195.166 17.4982 196.977 17.9329 198.535 18.8024C200.093 19.6356 201.288 20.8129 202.121 22.3345C202.991 23.8198 203.425 25.5586 203.425 27.5511V43.2508C203.425 43.9136 202.888 44.4508 202.225 44.4508H196.311ZM178.868 44.4508C178.205 44.4508 177.668 43.9136 177.668 43.2508V6.2C177.668 5.53726 178.205 5 178.868 5H184.782C185.445 5 185.982 5.53726 185.982 6.2V43.2508C185.982 43.9136 185.445 44.4508 184.782 44.4508H178.868Z" fill="white"/>
<path d="M218.709 44.9942C216.282 44.9942 214.109 44.3965 212.189 43.201C210.305 42.0055 208.801 40.3754 207.678 38.3104C206.592 36.2455 206.048 33.8908 206.048 31.2462C206.048 28.6017 206.592 26.2469 207.678 24.182C208.801 22.1171 210.305 20.4869 212.189 19.2914C214.109 18.0959 216.282 17.4982 218.709 17.4982C220.484 17.4982 222.078 17.8424 223.491 18.5307C224.94 19.219 226.118 20.179 227.023 21.4107C227.929 22.6062 228.436 23.9828 228.545 25.5405V36.9519C228.436 38.5097 227.929 39.9044 227.023 41.1361C226.154 42.3316 224.995 43.2735 223.546 43.9618C222.097 44.6501 220.484 44.9942 218.709 44.9942ZM220.394 37.4953C222.169 37.4953 223.6 36.9157 224.687 35.7564C225.774 34.561 226.317 33.0576 226.317 31.2462C226.317 30.0145 226.063 28.9277 225.556 27.9858C225.085 27.0439 224.397 26.3194 223.491 25.8122C222.622 25.2688 221.607 24.9971 220.448 24.9971C219.289 24.9971 218.257 25.2688 217.351 25.8122C216.481 26.3194 215.775 27.0439 215.232 27.9858C214.724 28.9277 214.471 30.0145 214.471 31.2462C214.471 32.4417 214.724 33.5104 215.232 34.4523C215.739 35.3942 216.445 36.1368 217.351 36.6802C218.257 37.2236 219.271 37.4953 220.394 37.4953ZM227.191 44.4508C226.528 44.4508 225.991 43.9136 225.991 43.2508V37.4482C225.991 37.3711 225.998 37.2942 226.013 37.2186L227.196 31.1498C227.226 30.9981 227.226 30.8422 227.196 30.6906L226.013 24.6218C225.998 24.5461 225.991 24.4693 225.991 24.3922V19.2416C225.991 18.5789 226.528 18.0416 227.191 18.0416H232.942C233.605 18.0416 234.142 18.5789 234.142 19.2416V43.2508C234.142 43.9136 233.605 44.4508 232.942 44.4508H227.191Z" fill="white"/>
</svg>
