<svg width="549" height="250" viewBox="0 0 549 250" fill="none" xmlns="http://www.w3.org/2000/svg">
<g clip-path="url(#clip0_2215_3063)">
<path d="M131.404 176.701H5.49745M5.49745 127.4H52.3482C63.1381 127.4 73.2838 132.555 79.6727 141.283L95.4376 162.819C101.826 171.546 111.972 176.701 122.762 176.701H163.733C168.393 176.701 172.953 175.738 177.151 173.922C184.982 170.535 189.885 163.002 194.183 155.631L203.758 139.21C208.056 131.84 213.08 124.443 220.979 121.218C225.899 119.21 231.293 118.141 236.202 118.141H1077C859.787 118.141 521.104 118.141 303.891 118.141C296.632 118.141 289.565 115.803 283.729 111.471L266.048 95.0307C260.212 90.6986 253.145 88.3606 245.886 88.3606H123.135C114.142 88.3606 105.518 84.7748 99.1589 78.392L47.882 26.9229L0 -21M146.613 176.701H116.413C109.539 176.701 102.996 179.668 98.4523 184.846L70.3626 216.855C65.8188 222.033 59.2762 225 52.4018 225H5.49745" stroke="url(#paint0_linear_2215_3063)" stroke-opacity="0.16" stroke-width="2"/>
</g>
<defs>
<linearGradient id="paint0_linear_2215_3063" x1="-76.4645" y1="102.048" x2="342.673" y2="570.309" gradientUnits="userSpaceOnUse">
<stop stop-color="#F4A71D"/>
<stop offset="0.505" stop-color="#DB85EB"/>
<stop offset="1" stop-color="#2962FF"/>
</linearGradient>
<clipPath id="clip0_2215_3063">
<rect width="549" height="250" fill="white"/>
</clipPath>
</defs>
</svg>
