<svg width="50" height="75" viewBox="0 0 50 75" fill="none" xmlns="http://www.w3.org/2000/svg">
<path d="M48.8118 25.8646C48.8118 13.519 39.1213 3.51099 27.1676 3.51099C15.2139 3.51099 5.52344 13.5191 5.52344 25.8646C5.52344 31.4474 7.50527 36.552 10.7817 40.4693H10.7815L15.5158 49.0513C16.7523 51.3406 17.2113 52.8189 19.2835 52.8189H34.7204C36.7927 52.8189 37.4023 51.2622 38.488 49.0513L43.5536 40.4693H43.5534C46.8298 36.552 48.8118 31.4474 48.8118 25.8646Z" fill="#FFE46A"/>
<path d="M6.8638 28.587C6.8638 15.8293 16.4795 5.28525 28.9625 3.59522C28.3397 3.53958 27.7147 3.51147 27.0895 3.51099C15.1358 3.51099 5.44531 13.5191 5.44531 25.8646C5.44531 29.9273 6.49564 33.7359 8.32981 37.0188C7.38059 34.3823 6.8638 31.544 6.8638 28.587Z" fill="#FFF0B7"/>
<path d="M48.8117 25.9124C48.8117 21.4904 47.5682 17.3687 45.4231 13.899C45.8823 15.7109 46.1146 17.5728 46.1145 19.4419C46.1145 34.1308 31.892 46.0935 14.125 46.5779L15.5158 49.0992C16.7523 51.3885 17.2113 52.8668 19.2834 52.8668H34.7204C36.7926 52.8668 37.4022 51.3101 38.488 49.0992L43.5536 40.5173H43.5533C46.8297 36.5997 48.8117 31.4952 48.8117 25.9124Z" fill="#FFDA00"/>
<path d="M36.2683 29.7004C36.2892 29.682 36.3101 29.6651 36.3312 29.6448C36.7231 29.2698 37.0458 28.6716 36.7757 28.1167C35.6677 25.8419 32.2799 25.1202 29.8114 25.8736C29.6864 25.9116 29.5651 25.9531 29.4474 25.998C28.1028 25.2129 26.4333 25.0242 24.9473 25.4961C24.7713 25.5517 24.5987 25.6172 24.4301 25.6922C23.6165 25.2168 22.6649 24.9797 21.7168 25.0714C19.7323 25.2634 18.0079 26.8728 17.6661 28.8334L17.5098 28.9302C18.8622 31.1156 22.4218 37.3777 22.6499 40.0723C22.9375 43.4718 22.6502 52.6995 22.6472 52.7923L24.3339 52.8456C24.346 52.4626 24.6272 43.4268 24.3312 39.93C24.1993 38.3709 23.2453 35.8859 21.4956 32.5442C20.679 30.9844 19.8862 29.615 19.4062 28.807C19.7381 27.7318 20.7576 26.8596 21.8793 26.7512C22.2208 26.7182 22.5673 26.7564 22.8989 26.8537C22.7742 27.0135 22.6649 27.1848 22.5727 27.3653C22.0036 28.4812 22.2414 29.8822 23.1258 30.6244C23.6496 31.0639 24.4107 31.2257 25.1124 31.0463C25.7659 30.8792 26.271 30.4498 26.4981 29.868C26.7021 29.3452 26.6848 28.7416 26.4465 28.0742C26.3085 27.6903 26.1167 27.3278 25.877 26.9977C26.5138 26.875 27.1711 26.9109 27.7909 27.1023C27.5497 27.3801 27.3652 27.6892 27.2438 28.0243C26.9845 28.7416 27.0991 29.5941 27.5431 30.2492C27.9257 30.814 28.5072 31.1497 29.1389 31.1705C29.1601 31.1712 29.1812 31.1716 29.2022 31.1716C29.7555 31.1716 30.2808 30.9337 30.6875 30.497C31.1652 29.9842 31.4083 29.2722 31.3377 28.5924C31.2928 28.1603 31.1391 27.7375 30.8916 27.3455C32.6123 27.0329 34.2955 27.6142 35.0236 28.4966C34.5842 29.2279 33.6818 30.7621 32.7486 32.5445C30.9991 35.8863 30.0448 38.3713 29.913 39.9303C29.6172 43.4271 29.8984 52.4629 29.9104 52.8459L31.597 52.7926C31.5941 52.6997 31.3068 43.4726 31.5943 40.0726C31.7995 37.6467 34.704 32.3318 36.2683 29.7004ZM24.9259 29.2545C24.8867 29.3552 24.7387 29.4 24.6943 29.4114C24.5185 29.4563 24.3195 29.4235 24.2103 29.3319C23.9269 29.0942 23.8653 28.5446 24.0757 28.1321C24.1447 27.9993 24.2323 27.877 24.3358 27.7689C24.5624 28.026 24.7425 28.321 24.8571 28.6419C24.9507 28.9035 24.9757 29.1269 24.9259 29.2545ZM29.4526 29.3464C29.4033 29.3992 29.3029 29.4859 29.194 29.4837C29.0772 29.4799 28.9846 29.3685 28.9398 29.3024C28.8001 29.0961 28.7553 28.8064 28.8306 28.598C28.9175 28.3576 29.0853 28.1608 29.2811 28.0025C29.499 28.2487 29.6328 28.5135 29.6591 28.7666C29.6793 28.9594 29.5962 29.1923 29.4526 29.3464Z" fill="#FAAF63"/>
<path d="M35.4288 56.6299H18.8301C17.902 56.6299 17.1426 57.3893 17.1426 58.3174V59.2957C17.1426 60.2238 17.902 60.9832 18.8301 60.9832H24.191C22.5925 61.5779 20.9047 62.992 20.9047 64.6319V65.29C22.1876 66.732 23.3824 69.2389 25.6581 69.2389H28.7364C30.5291 69.2389 31.8026 67.3036 33.354 65.29V64.6319C33.354 62.992 31.7437 61.5779 30.1832 60.9832H35.4288C36.3569 60.9832 37.1163 60.2238 37.1163 59.2957V58.3174C37.1163 57.3893 36.3569 56.6299 35.4288 56.6299Z" fill="#6B83A5"/>
<path d="M36.6187 56.6298H17.6367C16.7086 56.6298 15.9492 55.8704 15.9492 54.9423V53.964C15.9492 53.0359 16.7086 52.2765 17.6367 52.2765H36.6187C37.5468 52.2765 38.3062 53.0359 38.3062 53.964V54.9423C38.3062 55.8704 37.5468 56.6298 36.6187 56.6298ZM35.6333 63.6491V62.6708C35.6333 61.7427 34.874 60.9833 33.9458 60.9833H20.3096C19.3815 60.9833 18.6221 61.7427 18.6221 62.6708V63.6491C18.6221 64.5772 19.3815 65.3366 20.3096 65.3366H33.9458C34.874 65.3366 35.6333 64.5772 35.6333 63.6491Z" fill="#ABBDDB"/>
</svg>
