<svg width="541" height="250" viewBox="0 0 541 250" fill="none" xmlns="http://www.w3.org/2000/svg">
<g clip-path="url(#clip0_2215_3061)">
<path d="M409.535 176.624H535.5M535.5 127.343H488.628C477.833 127.343 467.682 132.495 461.29 141.219L445.518 162.747C439.126 171.471 428.976 176.624 418.181 176.624H377.191C372.529 176.624 367.967 175.662 363.767 173.847C355.933 170.462 351.026 162.929 346.725 155.558L337.15 139.152C332.848 131.782 327.82 124.386 319.919 121.163C314.996 119.155 309.6 118.087 304.688 118.087H-536.5C-319.186 118.087 19.6538 118.087 236.968 118.087C244.23 118.087 251.3 115.75 257.139 111.419L274.829 94.9856C280.667 90.6552 287.738 88.3181 295 88.3181H417.808C426.805 88.3181 435.433 84.7337 441.795 78.3534L493.096 26.9043L541 -20.9999M394.319 176.624H424.533C431.41 176.624 437.956 179.59 442.502 184.765L470.605 216.763C475.151 221.939 481.696 224.904 488.574 224.904H535.5" stroke="url(#paint0_linear_2215_3061)" stroke-opacity="0.16" stroke-width="2"/>
</g>
<defs>
<linearGradient id="paint0_linear_2215_3061" x1="617.5" y1="102" x2="198.565" y2="570.435" gradientUnits="userSpaceOnUse">
<stop stop-color="#F4A71D"/>
<stop offset="0.505" stop-color="#DB85EB"/>
<stop offset="1" stop-color="#2962FF"/>
</linearGradient>
<clipPath id="clip0_2215_3061">
<rect width="541" height="250" fill="white"/>
</clipPath>
</defs>
</svg>
