<svg width="215" height="33" viewBox="0 0 215 33" fill="none" xmlns="http://www.w3.org/2000/svg">
<g clip-path="url(#clip0_2218_3071)">
<mask id="mask0_2218_3071" style="mask-type:luminance" maskUnits="userSpaceOnUse" x="0" y="0" width="33" height="33">
<path d="M33 0H0V33H33V0Z" fill="white"/>
</mask>
<g mask="url(#mask0_2218_3071)">
<path fill-rule="evenodd" clip-rule="evenodd" d="M33 16.5C33 25.6126 25.6126 33 16.5 33C7.38738 33 0 25.6126 0 16.5C0 7.38738 7.38738 0 16.5 0C25.6126 0 33 7.38738 33 16.5Z" fill="#FF492C"/>
<path fill-rule="evenodd" clip-rule="evenodd" d="M23.6549 12.6369H20.835C20.9116 12.195 21.1842 11.9485 21.7381 11.668L22.2577 11.4045C23.1863 10.9287 23.6804 10.3931 23.6804 9.51759C23.6804 8.9651 23.4675 8.53148 23.0415 8.21719C22.6241 7.90263 22.1128 7.74951 21.525 7.74951C21.0565 7.74951 20.6304 7.86858 20.2386 8.11502C19.8553 8.35315 19.5655 8.65912 19.3867 9.04153L20.2047 9.85762C20.5197 9.22012 20.9798 8.90557 21.5847 8.90557C22.0959 8.90557 22.4112 9.16917 22.4112 9.53448C22.4112 9.84066 22.2577 10.0955 21.6699 10.3931L21.3376 10.5546C20.6135 10.9201 20.1109 11.3365 19.8211 11.8125C19.5316 12.28 19.3867 12.8834 19.3867 13.6061V13.8016H23.6549V12.6369Z" fill="white"/>
<path fill-rule="evenodd" clip-rule="evenodd" d="M23.2661 15.1494H18.6042L16.2734 19.1874H20.9353L23.2661 23.2256L25.5969 19.1874L23.2661 15.1494Z" fill="white"/>
<path fill-rule="evenodd" clip-rule="evenodd" d="M16.6704 21.886C13.6984 21.886 11.2806 19.4699 11.2806 16.4999C11.2806 13.5301 13.6984 11.1139 16.6704 11.1139L18.5156 7.25499C17.9189 7.13665 17.302 7.07422 16.6704 7.07422C11.4612 7.07422 7.23828 11.2943 7.23828 16.4999C7.23828 21.7057 11.4612 25.9255 16.6704 25.9255C18.7473 25.9255 20.6671 25.2543 22.2253 24.1177L20.1818 20.5809C19.2379 21.3932 18.0109 21.886 16.6704 21.886Z" fill="white"/>
</g>
</g>
<path d="M45.3462 22L42.6902 17.44H40.9302V22H39.4742V10.848H43.0742C43.9169 10.848 44.6262 10.992 45.2022 11.28C45.7889 11.568 46.2262 11.9573 46.5142 12.448C46.8022 12.9387 46.9462 13.4987 46.9462 14.128C46.9462 14.896 46.7222 15.5733 46.2742 16.16C45.8369 16.7467 45.1755 17.136 44.2902 17.328L47.0902 22H45.3462ZM40.9302 16.272H43.0742C43.8635 16.272 44.4555 16.08 44.8502 15.696C45.2449 15.3013 45.4422 14.7787 45.4422 14.128C45.4422 13.4667 45.2449 12.9547 44.8502 12.592C44.4662 12.2293 43.8742 12.048 43.0742 12.048H40.9302V16.272ZM48.6646 17.584C48.6646 16.688 48.8459 15.904 49.2086 15.232C49.5712 14.5493 50.0672 14.0213 50.6966 13.648C51.3366 13.2747 52.0459 13.088 52.8246 13.088C53.5926 13.088 54.2592 13.2533 54.8246 13.584C55.3899 13.9147 55.8112 14.3307 56.0886 14.832V13.232H57.5606V22H56.0886V20.368C55.8006 20.88 55.3686 21.3067 54.7926 21.648C54.2272 21.9787 53.5659 22.144 52.8086 22.144C52.0299 22.144 51.3259 21.952 50.6966 21.568C50.0672 21.184 49.5712 20.6453 49.2086 19.952C48.8459 19.2587 48.6646 18.4693 48.6646 17.584ZM56.0886 17.6C56.0886 16.9387 55.9552 16.3627 55.6886 15.872C55.4219 15.3813 55.0592 15.008 54.6006 14.752C54.1526 14.4853 53.6566 14.352 53.1126 14.352C52.5686 14.352 52.0726 14.48 51.6246 14.736C51.1766 14.992 50.8192 15.3653 50.5526 15.856C50.2859 16.3467 50.1526 16.9227 50.1526 17.584C50.1526 18.256 50.2859 18.8427 50.5526 19.344C50.8192 19.8347 51.1766 20.2133 51.6246 20.48C52.0726 20.736 52.5686 20.864 53.1126 20.864C53.6566 20.864 54.1526 20.736 54.6006 20.48C55.0592 20.2133 55.4219 19.8347 55.6886 19.344C55.9552 18.8427 56.0886 18.2613 56.0886 17.6ZM61.7971 14.432V19.6C61.7971 20.0267 61.8877 20.3307 62.0691 20.512C62.2504 20.6827 62.5651 20.768 63.0131 20.768H64.0851V22H62.7731C61.9624 22 61.3544 21.8133 60.9491 21.44C60.5437 21.0667 60.3411 20.4533 60.3411 19.6V14.432H59.2051V13.232H60.3411V11.024H61.7971V13.232H64.0851V14.432H61.7971ZM73.8492 17.28C73.8492 17.5573 73.8332 17.8507 73.8012 18.16H66.7932C66.8465 19.024 67.1399 19.7013 67.6732 20.192C68.2172 20.672 68.8732 20.912 69.6412 20.912C70.2705 20.912 70.7932 20.768 71.2092 20.48C71.6359 20.1813 71.9345 19.7867 72.1052 19.296H73.6732C73.4385 20.1387 72.9692 20.8267 72.2652 21.36C71.5612 21.8827 70.6865 22.144 69.6412 22.144C68.8092 22.144 68.0625 21.9573 67.4012 21.584C66.7505 21.2107 66.2385 20.6827 65.8652 20C65.4919 19.3067 65.3052 18.5067 65.3052 17.6C65.3052 16.6933 65.4865 15.8987 65.8492 15.216C66.2119 14.5333 66.7185 14.0107 67.3692 13.648C68.0305 13.2747 68.7879 13.088 69.6412 13.088C70.4732 13.088 71.2092 13.2693 71.8492 13.632C72.4892 13.9947 72.9799 14.496 73.3212 15.136C73.6732 15.7653 73.8492 16.48 73.8492 17.28ZM72.3452 16.976C72.3452 16.4213 72.2225 15.9467 71.9772 15.552C71.7319 15.1467 71.3959 14.8427 70.9692 14.64C70.5532 14.4267 70.0892 14.32 69.5772 14.32C68.8412 14.32 68.2119 14.5547 67.6892 15.024C67.1772 15.4933 66.8839 16.144 66.8092 16.976H72.3452ZM75.2271 17.584C75.2271 16.688 75.4084 15.904 75.7711 15.232C76.1337 14.5493 76.6297 14.0213 77.2591 13.648C77.8991 13.2747 78.6137 13.088 79.4031 13.088C80.0857 13.088 80.7204 13.248 81.3071 13.568C81.8937 13.8773 82.3417 14.288 82.6511 14.8V10.16H84.1231V22H82.6511V20.352C82.3631 20.8747 81.9364 21.3067 81.3711 21.648C80.8057 21.9787 80.1444 22.144 79.3871 22.144C78.6084 22.144 77.8991 21.952 77.2591 21.568C76.6297 21.184 76.1337 20.6453 75.7711 19.952C75.4084 19.2587 75.2271 18.4693 75.2271 17.584ZM82.6511 17.6C82.6511 16.9387 82.5177 16.3627 82.2511 15.872C81.9844 15.3813 81.6217 15.008 81.1631 14.752C80.7151 14.4853 80.2191 14.352 79.6751 14.352C79.1311 14.352 78.6351 14.48 78.1871 14.736C77.7391 14.992 77.3817 15.3653 77.1151 15.856C76.8484 16.3467 76.7151 16.9227 76.7151 17.584C76.7151 18.256 76.8484 18.8427 77.1151 19.344C77.3817 19.8347 77.7391 20.2133 78.1871 20.48C78.6351 20.736 79.1311 20.864 79.6751 20.864C80.2191 20.864 80.7151 20.736 81.1631 20.48C81.6217 20.2133 81.9844 19.8347 82.2511 19.344C82.5177 18.8427 82.6511 18.2613 82.6511 17.6ZM90.2572 19.424V18.32L95.8732 10.544H97.6172V18.16H99.2172V19.424H97.6172V22H96.1772V19.424H90.2572ZM96.2412 12.064L91.9372 18.16H96.2412V12.064ZM101.376 22.096C101.098 22.096 100.864 22 100.672 21.808C100.48 21.616 100.384 21.3813 100.384 21.104C100.384 20.8267 100.48 20.592 100.672 20.4C100.864 20.208 101.098 20.112 101.376 20.112C101.642 20.112 101.866 20.208 102.048 20.4C102.24 20.592 102.336 20.8267 102.336 21.104C102.336 21.3813 102.24 21.616 102.048 21.808C101.866 22 101.642 22.096 101.376 22.096ZM103.679 19.424V18.32L109.295 10.544H111.039V18.16H112.639V19.424H111.039V22H109.599V19.424H103.679ZM109.663 12.064L105.359 18.16H109.663V12.064ZM119.774 6.928L115.39 24.72H113.95L118.318 6.928H119.774ZM129.079 11.696H123.463V15.344C123.708 15.0027 124.071 14.7253 124.551 14.512C125.031 14.288 125.548 14.176 126.103 14.176C126.988 14.176 127.708 14.3627 128.263 14.736C128.818 15.0987 129.212 15.5733 129.447 16.16C129.692 16.736 129.815 17.3493 129.815 18C129.815 18.768 129.671 19.456 129.383 20.064C129.095 20.672 128.652 21.152 128.055 21.504C127.468 21.856 126.738 22.032 125.863 22.032C124.743 22.032 123.836 21.744 123.143 21.168C122.45 20.592 122.028 19.824 121.879 18.864H123.303C123.442 19.472 123.735 19.9467 124.183 20.288C124.631 20.6293 125.196 20.8 125.879 20.8C126.722 20.8 127.356 20.5493 127.783 20.048C128.21 19.536 128.423 18.864 128.423 18.032C128.423 17.2 128.21 16.56 127.783 16.112C127.356 15.6533 126.727 15.424 125.895 15.424C125.33 15.424 124.834 15.5627 124.407 15.84C123.991 16.1067 123.687 16.4747 123.495 16.944H122.119V10.416H129.079V11.696Z" fill="#220032"/>
<path d="M143.5 9L145.184 14.1824H150.633L146.225 17.3853L147.908 22.5676L143.5 19.3647L139.092 22.5676L140.775 17.3853L136.367 14.1824H141.816L143.5 9Z" fill="#FF492C"/>
<path d="M159.5 9L161.184 14.1824H166.633L162.225 17.3853L163.908 22.5676L159.5 19.3647L155.092 22.5676L156.775 17.3853L152.367 14.1824H157.816L159.5 9Z" fill="#FF492C"/>
<path d="M175.5 9L177.184 14.1824H182.633L178.225 17.3853L179.908 22.5676L175.5 19.3647L171.092 22.5676L172.775 17.3853L168.367 14.1824H173.816L175.5 9Z" fill="#FF492C"/>
<path d="M191.5 9L193.184 14.1824H198.633L194.225 17.3853L195.908 22.5676L191.5 19.3647L187.092 22.5676L188.775 17.3853L184.367 14.1824H189.816L191.5 9Z" fill="#FF492C"/>
<path d="M207.5 9L209.184 14.1824H214.633L210.225 17.3853L211.908 22.5676L207.5 19.3647L203.092 22.5676L204.775 17.3853L200.367 14.1824H205.816L207.5 9Z" fill="#FF492C"/>
<defs>
<clipPath id="clip0_2218_3071">
<rect width="33" height="33" fill="white"/>
</clipPath>
</defs>
</svg>
