<svg width="39" height="48" viewBox="0 0 39 48" fill="none" xmlns="http://www.w3.org/2000/svg">
<path d="M19.5 41.5L14.346 36.6448H6.73C5.81 36.6448 5.04134 36.3547 4.424 35.7744C3.80667 35.1941 3.49867 34.4694 3.5 33.6002V9.54463C3.5 8.67671 3.80867 7.9526 4.426 7.37232C5.04334 6.79203 5.812 6.50126 6.732 6.5H32.27C33.19 6.5 33.9587 6.79077 34.576 7.37232C35.1933 7.95386 35.5013 8.67796 35.5 9.54463V33.6021C35.5 34.4687 35.192 35.1928 34.576 35.7744C33.96 36.3559 33.1907 36.6461 32.268 36.6448H24.654L19.5 41.5ZM19.5 23.6015C21.1773 23.6015 22.5967 23.0545 23.758 21.9605C24.9193 20.8665 25.5 19.5295 25.5 17.9494C25.5 16.3693 24.9193 15.0322 23.758 13.9382C22.5967 12.8442 21.1773 12.2972 19.5 12.2972C17.8227 12.2972 16.4033 12.8442 15.242 13.9382C14.0807 15.0322 13.5 16.3693 13.5 17.9494C13.5 19.5295 14.0807 20.8665 15.242 21.9605C16.4033 23.0545 17.8227 23.6015 19.5 23.6015ZM6.346 34.7608H32.654C32.9353 34.5937 33.1273 34.3714 33.23 34.0938C33.3327 33.8162 33.4227 33.5575 33.5 33.3176C31.7 31.6533 29.608 30.3427 27.224 29.3856C24.84 28.4285 22.2653 27.9499 19.5 27.9499C16.7347 27.9499 14.1593 28.4285 11.774 29.3856C9.38867 30.3427 7.29734 31.654 5.5 33.3195C5.57734 33.5581 5.66667 33.8162 5.768 34.0938C5.86934 34.3714 6.062 34.5937 6.346 34.7608Z" fill="#FD5B0E"/>
</svg>
