<svg width="94" height="171" viewBox="0 0 94 171" fill="none" xmlns="http://www.w3.org/2000/svg">
<g clip-path="url(#clip0_2217_3066)">
<path d="M89.8283 69.656C88.6425 61.9395 85.6773 54.2224 82.1184 47.0993C78.5598 49.4738 74.4084 50.6609 69.6641 50.6609C56.6157 50.6609 45.9402 39.9762 45.9402 26.9169C45.9402 21.5745 47.719 16.8257 50.6846 12.6705C41.1955 6.73451 31.1127 2.57932 19.8439 0.204917C15.0995 -0.982284 10.9475 3.17292 10.9475 7.92172V28.1042C10.9475 31.6657 13.3197 35.2273 16.8786 35.821C34.6714 40.5696 48.9055 54.2224 53.6502 72.0305C54.8366 75.592 57.8021 77.9665 61.3601 77.9665H81.5253C86.8637 79.1536 91.0151 74.4049 89.8283 69.656Z" fill="white" fill-opacity="0.12"/>
<path d="M-43.6174 73.1674C-38.8728 55.3807 -24.6386 41.1513 -6.84624 37.001C-3.28769 35.8154 -0.915216 32.8509 -0.915216 29.2936V8.54249C-0.915216 3.79937 -5.66051 -0.350856 -9.81175 0.834921C-45.3965 7.35671 -73.2714 34.6297 -79.7953 69.6098C-80.9814 74.3531 -76.8299 79.0963 -72.0852 79.0963H-51.3274C-47.7689 79.0963 -44.2104 76.1321 -43.6174 73.1674Z" fill="white" fill-opacity="0.12"/>
<path d="M-6.66164 135.057C-24.4989 130.314 -38.769 116.677 -43.5256 98.8907C-44.7147 95.3335 -47.6876 92.9618 -51.255 92.9618H-72.0652C-76.8219 92.9618 -80.9839 97.7051 -79.7947 102.448C-73.2544 137.428 -45.3092 164.701 -10.2292 171.223C-5.47292 172.409 -1.31052 168.259 -1.31052 163.515V143.357C-0.715654 138.614 -3.09411 135.65 -6.66164 135.057Z" fill="white" fill-opacity="0.12"/>
<path d="M54.2497 98.2229C49.5057 116.01 35.2741 129.646 17.4858 134.389C13.9279 135.575 11.5558 138.539 11.5558 142.096V162.255C11.5558 166.998 16.2996 171.149 20.4507 169.963C55.4352 163.44 83.3054 136.168 89.8275 101.188C91.0137 96.4446 86.8626 91.7013 82.1192 91.7013H61.3652C57.8069 92.294 54.843 94.6656 54.2497 98.2229Z" fill="white" fill-opacity="0.12"/>
<path d="M70.3388 3.7815C62.6523 3.7815 56.1496 7.35579 52.0108 12.7172C65.017 21.0572 75.6595 32.9715 82.7534 47.2687C89.2569 43.0987 93.9865 35.3544 93.9865 27.0143C93.9865 14.5043 83.345 3.7815 70.3388 3.7815Z" fill="white" fill-opacity="0.12"/>
</g>
<defs>
<clipPath id="clip0_2217_3066">
<rect width="94" height="171" fill="white"/>
</clipPath>
</defs>
</svg>
