<svg width="49" height="48" viewBox="0 0 49 48" fill="none" xmlns="http://www.w3.org/2000/svg">
<path d="M17.35 12.7188H25.45C25.6975 12.7188 25.9 12.9227 25.9 13.1719V15.4375H16.9V13.1719C16.9 12.9227 17.1025 12.7188 17.35 12.7188ZM14.2 13.1719V15.4375H10.6C8.61438 15.4375 7 17.0631 7 19.0625V24.5H27.2613C29.0781 22.2854 31.8231 20.875 34.9 20.875C35.2037 20.875 35.5019 20.8863 35.8 20.9146V19.0625C35.8 17.0631 34.1856 15.4375 32.2 15.4375H28.6V13.1719C28.6 11.4217 27.1881 10 25.45 10H17.35C15.6119 10 14.2 11.4217 14.2 13.1719ZM25 29.9375H19.6C18.6044 29.9375 17.8 29.1275 17.8 28.125V26.3125H7V33.5625C7 35.5619 8.61438 37.1875 10.6 37.1875H27.2613C25.8494 35.4656 25 33.251 25 30.8438C25 30.5379 25.0113 30.2377 25.0394 29.9375H25ZM43 30.8438C43 28.6806 42.1466 26.606 40.6276 25.0764C39.1085 23.5468 37.0483 22.6875 34.9 22.6875C32.7517 22.6875 30.6915 23.5468 29.1724 25.0764C27.6534 26.606 26.8 28.6806 26.8 30.8438C26.8 33.0069 27.6534 35.0815 29.1724 36.6111C30.6915 38.1407 32.7517 39 34.9 39C37.0483 39 39.1085 38.1407 40.6276 36.6111C42.1466 35.0815 43 33.0069 43 30.8438ZM34.9 26.3125C35.395 26.3125 35.8 26.7203 35.8 27.2188V29.9375H37.6C38.095 29.9375 38.5 30.3453 38.5 30.8438C38.5 31.3422 38.095 31.75 37.6 31.75H34.9C34.405 31.75 34 31.3422 34 30.8438V27.2188C34 26.7203 34.405 26.3125 34.9 26.3125Z" fill="#FD5B0E"/>
</svg>
