<svg width="49" height="48" viewBox="0 0 49 48" fill="none" xmlns="http://www.w3.org/2000/svg">
<path d="M29.25 7.57289C29.2643 8.19595 29.1521 8.81554 28.9199 9.39529C28.6878 9.97505 28.3404 10.5033 27.8981 10.949C27.4559 11.3946 26.9277 11.7488 26.3446 11.9907C25.7614 12.2325 25.1351 12.3572 24.5024 12.3573C23.8697 12.3575 23.2433 12.2331 22.6601 11.9916C22.0768 11.75 21.5484 11.3961 21.1059 10.9506C20.6635 10.5052 20.3158 9.97711 20.0834 9.39747C19.8509 8.81783 19.7384 8.1983 19.7524 7.57523C19.7798 6.35279 20.292 5.1895 21.1794 4.33439C22.0667 3.47928 23.2586 3.00031 24.5 3C25.7414 2.99969 26.9336 3.47808 27.8214 4.33275C28.7091 5.18743 29.2219 6.35046 29.25 7.57289ZM26.2813 25.1179V31.5511H38.75C40.3887 31.5511 41.7187 32.8611 41.7187 34.4752V38.4521C42.3979 38.8383 42.9287 39.4345 43.2288 40.1482C43.5289 40.8618 43.5816 41.6531 43.3786 42.3992C43.1756 43.1453 42.7284 43.8046 42.1062 44.2749C41.484 44.7451 40.7217 45 39.9375 45C39.1533 45 38.391 44.7451 37.7688 44.2749C37.1466 43.8046 36.6994 43.1453 36.4964 42.3992C36.2934 41.6531 36.3461 40.8618 36.6462 40.1482C36.9463 39.4345 37.4771 38.8383 38.1562 38.4521V35.0601H26.2813V38.4521C26.9604 38.8383 27.4912 39.4345 27.7913 40.1482C28.0914 40.8618 28.1441 41.6531 27.9411 42.3992C27.7381 43.1453 27.2909 43.8046 26.6687 44.2749C26.0465 44.7451 25.2842 45 24.5 45C23.7158 45 22.9535 44.7451 22.3313 44.2749C21.7091 43.8046 21.2619 43.1453 21.0589 42.3992C20.8559 41.6531 20.9086 40.8618 21.2087 40.1482C21.5088 39.4345 22.0396 38.8383 22.7187 38.4521V35.0601H10.8438V38.4521C11.5229 38.8383 12.0537 39.4345 12.3538 40.1482C12.6539 40.8618 12.7066 41.6531 12.5036 42.3992C12.3006 43.1453 11.8534 43.8046 11.2312 44.2749C10.609 44.7451 9.84673 45 9.0625 45C8.27827 45 7.51596 44.7451 6.89379 44.2749C6.27162 43.8046 5.82436 43.1453 5.62139 42.3992C5.41842 41.6531 5.47107 40.8618 5.77118 40.1482C6.07129 39.4345 6.60209 38.8383 7.28125 38.4521V34.4752C7.28125 32.8611 8.61125 31.5511 10.25 31.5511H22.7187V25.1179H26.2813ZM24.5 14.5909C21.3294 14.5909 15 16.1676 15 18.7502V21.8686H34V18.7502C34 16.1676 27.6706 14.5909 24.5 14.5909Z" fill="#FD5B0E"/>
</svg>
