<svg width="427" height="302" viewBox="0 0 427 302" fill="none" xmlns="http://www.w3.org/2000/svg">
<g clip-path="url(#clip0_2573_6304)">
<path d="M295.535 253.624H421.5M421.5 204.343H374.628C363.833 204.343 353.682 209.495 347.29 218.219L331.518 239.747C325.126 248.471 314.976 253.624 304.181 253.624H263.191C258.529 253.624 253.967 252.662 249.767 250.847C241.933 247.462 237.026 239.929 232.725 232.558L223.15 216.152C218.848 208.782 213.82 201.386 205.919 198.163C200.996 196.155 195.6 195.087 190.688 195.087H-650.5C-433.186 195.087 -94.3462 195.087 122.968 195.087C130.23 195.087 137.3 192.75 143.139 188.419L160.829 171.986C166.667 167.655 173.738 165.318 181 165.318H303.808C312.805 165.318 321.433 161.734 327.795 155.353L379.096 103.904L427 56.0001M280.319 253.624H310.533C317.41 253.624 323.956 256.59 328.502 261.765L356.605 293.763C361.151 298.939 367.696 301.904 374.574 301.904H421.5" stroke="url(#paint0_linear_2573_6304)" stroke-opacity="0.16" stroke-width="2"/>
</g>
<defs>
<linearGradient id="paint0_linear_2573_6304" x1="503.5" y1="179" x2="84.5654" y2="647.435" gradientUnits="userSpaceOnUse">
<stop stop-color="#F4A71D"/>
<stop offset="0.505" stop-color="#DB85EB"/>
<stop offset="1" stop-color="#2962FF"/>
</linearGradient>
<clipPath id="clip0_2573_6304">
<rect width="427" height="302" fill="white"/>
</clipPath>
</defs>
</svg>
